<?xml version="1.0" encoding="UTF-8" standalone="no"?>
<!-- Created with Inkscape (http://www.inkscape.org/) -->

<svg
   xmlns:dc="http://purl.org/dc/elements/1.1/"
   xmlns:cc="http://creativecommons.org/ns#"
   xmlns:rdf="http://www.w3.org/1999/02/22-rdf-syntax-ns#"
   xmlns:svg="http://www.w3.org/2000/svg"
   xmlns="http://www.w3.org/2000/svg"
   xmlns:sodipodi="http://sodipodi.sourceforge.net/DTD/sodipodi-0.dtd"
   xmlns:inkscape="http://www.inkscape.org/namespaces/inkscape"
   width="16.66544mm"
   height="11.847124mm"
   viewBox="0 0 59.05077 41.977998"
   id="svg8090"
   version="1.1"
   inkscape:version="0.91 r13725"
   sodipodi:docname="draw.svg">
  <defs
     id="defs8092" />
  <sodipodi:namedview
     id="base"
     pagecolor="#ffffff"
     bordercolor="#666666"
     borderopacity="1.0"
     inkscape:pageopacity="0.0"
     inkscape:pageshadow="2"
     inkscape:zoom="7.9195959"
     inkscape:cx="-29.279428"
     inkscape:cy="12.429121"
     inkscape:document-units="px"
     inkscape:current-layer="layer1"
     showgrid="false"
     fit-margin-top="0"
     fit-margin-left="0"
     fit-margin-right="0"
     fit-margin-bottom="0"
     inkscape:window-width="1920"
     inkscape:window-height="1023"
     inkscape:window-x="0"
     inkscape:window-y="0"
     inkscape:window-maximized="1"
     inkscape:snap-page="true"
     inkscape:snap-bbox="true"
     inkscape:bbox-nodes="true" />
  <metadata
     id="metadata8095">
    <rdf:RDF>
      <cc:Work
         rdf:about="">
        <dc:format>image/svg+xml</dc:format>
        <dc:type
           rdf:resource="http://purl.org/dc/dcmitype/StillImage" />
        <dc:title />
      </cc:Work>
    </rdf:RDF>
  </metadata>
  <g
     inkscape:label="Livello 1"
     inkscape:groupmode="layer"
     id="layer1"
     transform="translate(-533.33167,-360.77018)">
    <path
       d="m 533.33167,402.74818 0,-41.978 59.05077,0 0,41.978 -59.05077,0 z"
       style="fill:#000000;fill-opacity:1;fill-rule:nonzero;stroke:none"
       id="path440"
       inkscape:connector-curvature="0" />
    <g
       id="g3383">
      <path
         d="m 583.20621,402.74818 c 5.0675,0 9.17624,-4.10875 9.17624,-9.1775 0,-5.06375 -4.10874,-9.175 -9.17624,-9.175 -5.06876,0 -9.17625,4.11125 -9.17625,9.175 0,5.06875 4.10749,9.1775 9.17625,9.1775"
         style="fill:#ffffff;fill-opacity:1;fill-rule:nonzero;stroke:none"
         id="path856-3"
         inkscape:connector-curvature="0" />
      <path
         d="m 544.31833,393.5978 c 0.23,0 0.4475,-0.0175 0.66,-0.0512 0.21,-0.0312 0.39875,-0.1 0.56,-0.195 0.16,-0.0975 0.28875,-0.2375 0.38625,-0.4125 0.0975,-0.18125 0.14625,-0.41 0.14625,-0.70125 0,-0.2875 -0.0487,-0.5225 -0.14625,-0.6975 -0.0975,-0.17875 -0.22625,-0.315 -0.38625,-0.41375 -0.16125,-0.0975 -0.35,-0.1625 -0.56,-0.1975 -0.2125,-0.0337 -0.43,-0.0513 -0.66,-0.0513 l -1.5525,0 0,2.72 1.5525,0 z m 0.54625,-4.2725 c 0.5675,0 1.04875,0.0825 1.45,0.24875 0.39625,0.16625 0.72125,0.38375 0.9725,0.655 0.24875,0.2725 0.4325,0.5825 0.54625,0.93 0.11375,0.34625 0.17,0.705 0.17,1.07875 0,0.36375 -0.0562,0.7225 -0.17,1.07375 -0.11375,0.355 -0.2975,0.665 -0.54625,0.9375 -0.25125,0.26875 -0.57625,0.48625 -0.9725,0.6525 -0.40125,0.16625 -0.8825,0.24625 -1.45,0.24625 l -2.09875,0 0,3.2575 -1.9975,0 0,-9.08 4.09625,0 z m 6.38,9.08 -1.995,0 0,-9.08 1.995,0 0,9.08 z m 7.57875,-6.65625 c -0.1175,-0.19 -0.26625,-0.35875 -0.445,-0.5025 -0.17875,-0.14375 -0.38125,-0.25625 -0.6025,-0.33375 -0.2275,-0.0838 -0.4625,-0.125 -0.70875,-0.125 -0.44875,0 -0.82875,0.0875 -1.1425,0.26375 -0.31375,0.17375 -0.57,0.405 -0.76125,0.6975 -0.1975,0.29125 -0.33875,0.625 -0.4275,0.99625 -0.0888,0.37375 -0.1325,0.76 -0.1325,1.1575 0,0.38375 0.0438,0.7525 0.1325,1.11375 0.0888,0.35875 0.23,0.68375 0.4275,0.97125 0.19125,0.29125 0.4475,0.52 0.76125,0.69625 0.31375,0.17 0.69375,0.25875 1.1425,0.25875 0.61125,0 1.08875,-0.18625 1.43375,-0.55875 0.34125,-0.37375 0.55125,-0.865 0.62875,-1.4775 l 1.93125,0 c -0.0512,0.56875 -0.1825,1.08125 -0.39375,1.54 -0.21375,0.45875 -0.4925,0.8475 -0.84125,1.1675 -0.34625,0.325 -0.75125,0.56875 -1.21625,0.74 -0.46875,0.1675 -0.98375,0.25625 -1.5425,0.25625 -0.69375,0 -1.31875,-0.125 -1.87375,-0.36375 -0.555,-0.245 -1.02375,-0.57375 -1.40625,-0.99875 -0.38,-0.4225 -0.6725,-0.92 -0.875,-1.49375 -0.205,-0.57375 -0.305,-1.19 -0.305,-1.85125 0,-0.67875 0.1,-1.30875 0.305,-1.8875 0.2025,-0.57875 0.495,-1.08625 0.875,-1.5175 0.3825,-0.4325 0.85125,-0.7725 1.40625,-1.01875 0.555,-0.24625 1.18,-0.36875 1.87375,-0.36875 0.50125,0 0.97375,0.0738 1.41875,0.215 0.44625,0.14375 0.845,0.35375 1.19625,0.63 0.35,0.27625 0.6425,0.6175 0.86875,1.025 0.23,0.405 0.3725,0.8725 0.435,1.39625 l -1.93375,0 c -0.0337,-0.22625 -0.11125,-0.43875 -0.22875,-0.6275 m 5.5925,-2.42375 0,3.7675 3.55,-3.7675 2.49,0 -3.5475,3.58625 3.89125,5.49375 -2.50625,0 -2.73375,-4.0825 -1.14375,1.1575 0,2.925 -1.99625,0 0,-9.08"
         style="fill:#ffffff;fill-opacity:1;fill-rule:nonzero;stroke:none"
         id="path860-6"
         inkscape:connector-curvature="0" />
      <path
         d="m 583.06583,392.44055 c 0.29625,-0.02 0.57,-0.0875 0.82625,-0.1925 0.25375,-0.11 0.46375,-0.26375 0.62875,-0.46875 0.16375,-0.205 0.24625,-0.47625 0.24625,-0.81625 0,-0.5125 -0.16875,-0.9025 -0.51,-1.17625 -0.33875,-0.27125 -0.73125,-0.4075 -1.1725,-0.4075 -0.61375,0 -1.07625,0.2025 -1.39,0.605 -0.31,0.4 -0.46,0.91125 -0.4475,1.52375 l -2.3,0 c 0.0263,-0.6125 0.135,-1.175 0.3325,-1.6775 0.2,-0.505 0.47875,-0.9375 0.83625,-1.30125 0.3575,-0.36375 0.78625,-0.645 1.285,-0.8425 0.49625,-0.1975 1.0525,-0.2975 1.665,-0.2975 0.47875,0 0.955,0.0688 1.43,0.2125 0.47375,0.14125 0.90375,0.35375 1.285,0.6375 0.3825,0.2825 0.69,0.6325 0.92625,1.0375 0.23875,0.4075 0.3575,0.87875 0.3575,1.41375 0,0.57875 -0.13875,1.08875 -0.4175,1.53 -0.27625,0.4425 -0.69375,0.7425 -1.25,0.90125 l 0,0.0337 c 0.65875,0.14625 1.175,0.46625 1.54875,0.955 0.3725,0.48875 0.56125,1.07125 0.56125,1.75 0,0.625 -0.1225,1.1825 -0.36375,1.67 -0.2475,0.48875 -0.57125,0.89375 -0.97875,1.22375 -0.41125,0.32875 -0.88125,0.57875 -1.4125,0.74876 -0.53375,0.16874 -1.0875,0.25499 -1.6675,0.25499 -0.67,0 -1.28,-0.0962 -1.83,-0.28875 -0.55125,-0.1925 -1.01875,-0.47375 -1.40375,-0.8425 -0.38625,-0.36875 -0.68375,-0.8175 -0.89375,-1.3525 -0.21,-0.535 -0.3075,-1.145 -0.29625,-1.83874 l 2.29625,0 c 0.01,0.3175 0.06,0.62374 0.155,0.91125 0.0887,0.28999 0.21875,0.53999 0.3875,0.75 0.1725,0.20999 0.385,0.375 0.63875,0.5025 0.25625,0.125 0.56,0.185 0.91,0.185 0.5475,0 1.005,-0.16501 1.3775,-0.5 0.3775,-0.33501 0.5625,-0.79376 0.5625,-1.3725 0,-0.45376 -0.0862,-0.80001 -0.26375,-1.03751 -0.175,-0.23625 -0.39875,-0.41 -0.67125,-0.5175 -0.2725,-0.11 -0.57,-0.17124 -0.89375,-0.1875 -0.32375,-0.0175 -0.6325,-0.0275 -0.92625,-0.0275 l 0,-1.70124 c 0.26125,0.025 0.54,0.025 0.8325,0"
         style="fill:#231f20;fill-opacity:1;fill-rule:nonzero;stroke:none"
         id="path872-3"
         inkscape:connector-curvature="0" />
    </g>
    <g
       id="g3378">
      <path
         d="m 583.20621,379.12268 c 5.0675,0 9.17624,-4.10625 9.17624,-9.1775 0,-5.06375 -4.10874,-9.175 -9.17624,-9.175 -5.06876,0 -9.17625,4.11125 -9.17625,9.175 0,5.07125 4.10749,9.1775 9.17625,9.1775"
         style="fill:#ffffff;fill-opacity:1;fill-rule:nonzero;stroke:none"
         id="path864-7"
         inkscape:connector-curvature="0" />
      <path
         d="m 579.56733,366.69343 c 0.16875,-0.5425 0.4225,-1.015 0.75875,-1.41875 0.3375,-0.4075 0.7625,-0.7225 1.2725,-0.95 0.50875,-0.22375 1.0975,-0.33875 1.76125,-0.33875 0.505,0 0.98625,0.0775 1.44625,0.23375 0.4575,0.15875 0.86,0.38875 1.20625,0.68125 0.35,0.29625 0.62625,0.6575 0.83,1.09 0.20625,0.43125 0.31,0.9175 0.31,1.455 0,0.55875 -0.09,1.0375 -0.27,1.4375 -0.1775,0.3975 -0.415,0.75375 -0.71125,1.065 -0.295,0.3125 -0.63,0.5925 -1.00375,0.84625 -0.37,0.25125 -0.74625,0.50125 -1.12875,0.75 -0.37875,0.24625 -0.7475,0.515 -1.10625,0.79875 -0.35875,0.285 -0.675,0.6175 -0.945,0.9925 l 5.2275,0 0,1.92625 -8.12,0 c 0,-0.63875 0.0913,-1.19875 0.275,-1.67125 0.185,-0.47375 0.43375,-0.89625 0.75125,-1.2725 0.315,-0.37375 0.6875,-0.72 1.11375,-1.035 0.4275,-0.315 0.875,-0.635 1.35,-0.965 0.2425,-0.165 0.50125,-0.33625 0.775,-0.51 0.27375,-0.175 0.52375,-0.36625 0.75125,-0.57875 0.225,-0.2125 0.4175,-0.44625 0.57125,-0.71 0.15,-0.26375 0.22375,-0.56375 0.22375,-0.90125 0,-0.53625 -0.1525,-0.95625 -0.465,-1.2575 -0.31,-0.3 -0.7075,-0.44875 -1.19125,-0.44875 -0.3275,0 -0.60375,0.0763 -0.83125,0.23 -0.22375,0.15375 -0.4075,0.35125 -0.54375,0.6 -0.1375,0.24625 -0.235,0.52 -0.29125,0.82 -0.0588,0.30125 -0.0875,0.60125 -0.0875,0.89375 l -2.15125,0 c -0.0187,-0.6325 0.0538,-1.22 0.2225,-1.7625"
         style="fill:#231f20;fill-opacity:1;fill-rule:nonzero;stroke:none"
         id="path868-5"
         inkscape:connector-curvature="0" />
      <path
         d="m 537.08683,373.14368 c 0.28625,0 0.56625,-0.0463 0.835,-0.13875 0.27125,-0.095 0.51,-0.25 0.7225,-0.46125 0.2075,-0.215 0.3775,-0.49625 0.5025,-0.8425 0.1275,-0.3475 0.1925,-0.7675 0.1925,-1.2625 0,-0.45625 -0.0462,-0.86625 -0.135,-1.235 -0.0888,-0.36625 -0.2325,-0.68125 -0.4325,-0.94 -0.20375,-0.26125 -0.47125,-0.46125 -0.80625,-0.60375 -0.3325,-0.13625 -0.745,-0.2075 -1.23125,-0.2075 l -1.4175,0 0,5.69125 1.77,0 z m 0.1375,-7.36125 c 0.585,0 1.1275,0.0937 1.625,0.27875 0.5025,0.185 0.9375,0.46375 1.30375,0.835 0.36625,0.37125 0.65375,0.835 0.86125,1.39125 0.20625,0.5575 0.31,1.20875 0.31,1.96125 0,0.65625 -0.0862,1.26125 -0.25375,1.81875 -0.16875,0.55625 -0.4225,1.0375 -0.76625,1.4425 -0.34,0.405 -0.76625,0.72 -1.275,0.955 -0.51,0.22875 -1.1125,0.34625 -1.805,0.34625 l -3.8925,0 0,-9.02875 3.8925,0 z m 9.38375,4.0875 c 0.45375,0 0.79625,-0.1025 1.0225,-0.305 0.2275,-0.2025 0.3425,-0.5325 0.3425,-0.98625 0,-0.4375 -0.115,-0.7575 -0.3425,-0.955 -0.22625,-0.1975 -0.56875,-0.295 -1.0225,-0.295 l -2.175,0 0,2.54125 2.175,0 z m 0.71,-4.0875 c 0.4025,0 0.7675,0.0663 1.0925,0.19875 0.3225,0.12875 0.6025,0.3075 0.83375,0.53625 0.23,0.2275 0.41,0.49125 0.53,0.79125 0.1225,0.2975 0.185,0.62 0.185,0.96625 0,0.53 -0.11375,0.98875 -0.3375,1.38 -0.22125,0.38625 -0.58625,0.68125 -1.09375,0.88375 l 0,0.0263 c 0.24625,0.0637 0.44875,0.16625 0.61,0.31125 0.15875,0.13625 0.2875,0.3025 0.39,0.4875 0.1025,0.19125 0.1775,0.4 0.2225,0.6275 0.0462,0.23 0.0763,0.45375 0.095,0.68375 0.01,0.14125 0.0175,0.3125 0.025,0.505 0.006,0.19625 0.0238,0.39375 0.045,0.59375 0.0187,0.205 0.055,0.3925 0.10125,0.57625 0.0462,0.18 0.11375,0.33125 0.20875,0.46125 l -1.98625,0 c -0.11,-0.2875 -0.17875,-0.6275 -0.2025,-1.0225 -0.0263,-0.39625 -0.0637,-0.77625 -0.115,-1.14 -0.0675,-0.47125 -0.21,-0.81625 -0.43,-1.03875 -0.22,-0.21625 -0.57625,-0.32625 -1.0725,-0.32625 l -1.98625,0 0,3.5275 -1.985,0 0,-9.02875 4.87,0 z m 9.63125,5.54 -1.13875,-3.3125 -0.0225,0 -1.17625,3.3125 2.3375,0 z m -0.1125,-5.54 3.375,9.02875 -2.06,0 -0.6825,-2.00875 -3.3775,0 -0.70625,2.00875 -2,0 3.41625,-9.02875 2.035,0 z m 10.22625,9.02875 -1.5275,-6.145 -0.0275,0 -1.505,6.145 -2.0075,0 -2.39125,-9.02875 1.98625,0 1.42875,6.145 0.025,0 1.56625,-6.145 1.86125,0 1.53875,6.22125 0.0275,0 1.4775,-6.22125 1.94875,0 -2.4275,9.02875"
         style="fill:#ffffff;fill-opacity:1;fill-rule:nonzero;stroke:none"
         id="path876-5"
         inkscape:connector-curvature="0" />
    </g>
  </g>
</svg>
