<?xml version="1.0" encoding="UTF-8" standalone="no"?>
<!-- Created with Inkscape (http://www.inkscape.org/) -->

<svg
   xmlns:dc="http://purl.org/dc/elements/1.1/"
   xmlns:cc="http://creativecommons.org/ns#"
   xmlns:rdf="http://www.w3.org/1999/02/22-rdf-syntax-ns#"
   xmlns:svg="http://www.w3.org/2000/svg"
   xmlns="http://www.w3.org/2000/svg"
   xmlns:sodipodi="http://sodipodi.sourceforge.net/DTD/sodipodi-0.dtd"
   xmlns:inkscape="http://www.inkscape.org/namespaces/inkscape"
   width="6.8702765mm"
   height="4.9128184mm"
   viewBox="0 0 24.343499 17.407624"
   id="svg8009"
   version="1.1"
   inkscape:version="0.91 r13725"
   sodipodi:docname="logo.svg">
  <defs
     id="defs8011" />
  <sodipodi:namedview
     id="base"
     pagecolor="#ffffff"
     bordercolor="#666666"
     borderopacity="1.0"
     inkscape:pageopacity="0.0"
     inkscape:pageshadow="2"
     inkscape:zoom="12.365269"
     inkscape:cx="9.699972"
     inkscape:cy="9.7397156"
     inkscape:document-units="px"
     inkscape:current-layer="layer1"
     showgrid="false"
     fit-margin-top="0"
     fit-margin-left="0"
     fit-margin-right="0"
     fit-margin-bottom="0"
     inkscape:window-width="1920"
     inkscape:window-height="1023"
     inkscape:window-x="0"
     inkscape:window-y="0"
     inkscape:window-maximized="1" />
  <metadata
     id="metadata8014">
    <rdf:RDF>
      <cc:Work
         rdf:about="">
        <dc:format>image/svg+xml</dc:format>
        <dc:type
           rdf:resource="http://purl.org/dc/dcmitype/StillImage" />
        <dc:title />
      </cc:Work>
    </rdf:RDF>
  </metadata>
  <g
     inkscape:label="Livello 1"
     inkscape:groupmode="layer"
     id="layer1"
     transform="translate(-544.9711,-466.51554)">
    <g
       transform="matrix(1.25,0,0,-1.25,492.51523,817.43629)"
       id="g7971">
      <path
         d="m 54.2568,271.2812 -9.277,-2.836 -2.836,9.277 9.277,2.834"
         style="fill:#000000;fill-opacity:1;fill-rule:nonzero;stroke:none"
         id="path836"
         inkscape:connector-curvature="0" />
      <path
         d="m 44.8857,268.2656 -2.921,9.551 9.551,2.92 2.921,-9.551 -9.551,-2.92 z m -2.563,9.361 2.751,-9.004 9.004,2.752 -2.752,9.004"
         style="fill:#231f20;fill-opacity:1;fill-rule:nonzero;stroke:none"
         id="path840"
         inkscape:connector-curvature="0" />
      <path
         inkscape:connector-curvature="0"
         id="path842"
         style="fill:#585a5c;fill-opacity:1;fill-rule:nonzero;stroke:none"
         d="m 46.931,269.441 9.701,0 0,9.701 -9.701,0 0,-9.701 z" />
      <path
         inkscape:connector-curvature="0"
         id="path844"
         style="fill:#231f20;fill-opacity:1;fill-rule:nonzero;stroke:none"
         d="m 56.775,269.299 -9.986,0 0,9.986 9.986,0 0,-9.986 z m -9.701,0.287 9.414,0 0,9.416 -9.414,0 0,-9.416 z" />
      <path
         d="m 58.4248,266.9883 -9.276,2.838 2.836,9.275 9.277,-2.836"
         style="fill:#ffffff;fill-opacity:1;fill-rule:nonzero;stroke:none"
         id="path848"
         inkscape:connector-curvature="0" />
      <path
         d="m 58.5195,266.8105 -9.551,2.92 2.919,9.551 9.552,-2.92 -2.92,-9.551 z m -9.193,3.109 9.005,-2.754 2.751,9.006 -9.004,2.752"
         style="fill:#231f20;fill-opacity:1;fill-rule:nonzero;stroke:none"
         id="path852"
         inkscape:connector-curvature="0" />
    </g>
  </g>
</svg>
