<?xml version="1.0" encoding="UTF-8" standalone="no"?>
<!-- Created with Inkscape (http://www.inkscape.org/) -->

<svg
   xmlns:dc="http://purl.org/dc/elements/1.1/"
   xmlns:cc="http://creativecommons.org/ns#"
   xmlns:rdf="http://www.w3.org/1999/02/22-rdf-syntax-ns#"
   xmlns:svg="http://www.w3.org/2000/svg"
   xmlns="http://www.w3.org/2000/svg"
   xmlns:sodipodi="http://sodipodi.sourceforge.net/DTD/sodipodi-0.dtd"
   xmlns:inkscape="http://www.inkscape.org/namespaces/inkscape"
   width="16.66544mm"
   height="11.847124mm"
   viewBox="0 0 59.05077 41.977998"
   id="svg8090"
   version="1.1"
   inkscape:version="0.91 r13725"
   sodipodi:docname="pick.svg">
  <defs
     id="defs8092" />
  <sodipodi:namedview
     id="base"
     pagecolor="#ffffff"
     bordercolor="#666666"
     borderopacity="1.0"
     inkscape:pageopacity="0.0"
     inkscape:pageshadow="2"
     inkscape:zoom="7.9195959"
     inkscape:cx="-44.116043"
     inkscape:cy="12.429121"
     inkscape:document-units="px"
     inkscape:current-layer="layer1"
     showgrid="false"
     fit-margin-top="0"
     fit-margin-left="0"
     fit-margin-right="0"
     fit-margin-bottom="0"
     inkscape:window-width="1920"
     inkscape:window-height="1023"
     inkscape:window-x="0"
     inkscape:window-y="0"
     inkscape:window-maximized="1"
     inkscape:snap-page="true"
     inkscape:snap-bbox="true"
     inkscape:bbox-nodes="true" />
  <metadata
     id="metadata8095">
    <rdf:RDF>
      <cc:Work
         rdf:about="">
        <dc:format>image/svg+xml</dc:format>
        <dc:type
           rdf:resource="http://purl.org/dc/dcmitype/StillImage" />
        <dc:title />
      </cc:Work>
    </rdf:RDF>
  </metadata>
  <g
     inkscape:label="Livello 1"
     inkscape:groupmode="layer"
     id="layer1"
     transform="translate(-533.33167,-360.77018)">
    <path
       d="m 533.33167,402.74818 0,-41.978 59.05077,0 0,41.978 -59.05077,0 z"
       style="fill:#000000;fill-opacity:1;fill-rule:nonzero;stroke:none"
       id="path440"
       inkscape:connector-curvature="0" />
    <g
       id="g3362">
      <g
         id="g3353">
        <path
           d="m 583.20621,402.74818 c 5.0675,0 9.17624,-4.10625 9.17624,-9.1775 0,-5.06375 -4.10874,-9.175 -9.17624,-9.175 -5.06876,0 -9.17625,4.11125 -9.17625,9.175 0,5.07125 4.10749,9.1775 9.17625,9.1775"
           style="fill:#ffffff;fill-opacity:1;fill-rule:nonzero;stroke:none"
           id="path864-7"
           inkscape:connector-curvature="0" />
        <path
           d="m 579.56733,390.31893 c 0.16875,-0.5425 0.4225,-1.015 0.75875,-1.41875 0.3375,-0.4075 0.7625,-0.7225 1.2725,-0.95 0.50875,-0.22375 1.0975,-0.33875 1.76125,-0.33875 0.505,0 0.98625,0.0775 1.44625,0.23375 0.4575,0.15875 0.86,0.38875 1.20625,0.68125 0.35,0.29625 0.62625,0.6575 0.83,1.09 0.20625,0.43125 0.31,0.9175 0.31,1.455 0,0.55875 -0.09,1.0375 -0.27,1.4375 -0.1775,0.3975 -0.415,0.75375 -0.71125,1.065 -0.295,0.3125 -0.63,0.5925 -1.00375,0.84625 -0.37,0.25125 -0.74625,0.50125 -1.12875,0.75 -0.37875,0.24625 -0.7475,0.515 -1.10625,0.79875 -0.35875,0.285 -0.675,0.6175 -0.945,0.9925 l 5.2275,0 0,1.92625 -8.12,0 c 0,-0.63875 0.0913,-1.19875 0.275,-1.67125 0.185,-0.47375 0.43375,-0.89625 0.75125,-1.2725 0.315,-0.37375 0.6875,-0.72 1.11375,-1.035 0.4275,-0.315 0.875,-0.635 1.35,-0.965 0.2425,-0.165 0.50125,-0.33625 0.775,-0.51 0.27375,-0.175 0.52375,-0.36625 0.75125,-0.57875 0.225,-0.2125 0.4175,-0.44625 0.57125,-0.71 0.15,-0.26375 0.22375,-0.56375 0.22375,-0.90125 0,-0.53625 -0.1525,-0.95625 -0.465,-1.2575 -0.31,-0.3 -0.7075,-0.44875 -1.19125,-0.44875 -0.3275,0 -0.60375,0.0763 -0.83125,0.23 -0.22375,0.15375 -0.4075,0.35125 -0.54375,0.6 -0.1375,0.24625 -0.235,0.52 -0.29125,0.82 -0.0588,0.30125 -0.0875,0.60125 -0.0875,0.89375 l -2.15125,0 c -0.0187,-0.6325 0.0538,-1.22 0.2225,-1.7625"
           style="fill:#231f20;fill-opacity:1;fill-rule:nonzero;stroke:none"
           id="path868-5"
           inkscape:connector-curvature="0" />
      </g>
      <path
         d="m 544.31833,393.5978 c 0.23,0 0.4475,-0.0175 0.66,-0.0512 0.21,-0.0312 0.39875,-0.1 0.56,-0.195 0.16,-0.0975 0.28875,-0.2375 0.38625,-0.4125 0.0975,-0.18125 0.14625,-0.41 0.14625,-0.70125 0,-0.2875 -0.0487,-0.5225 -0.14625,-0.6975 -0.0975,-0.17875 -0.22625,-0.315 -0.38625,-0.41375 -0.16125,-0.0975 -0.35,-0.1625 -0.56,-0.1975 -0.2125,-0.0337 -0.43,-0.0513 -0.66,-0.0513 l -1.5525,0 0,2.72 1.5525,0 z m 0.54625,-4.2725 c 0.5675,0 1.04875,0.0825 1.45,0.24875 0.39625,0.16625 0.72125,0.38375 0.9725,0.655 0.24875,0.2725 0.4325,0.5825 0.54625,0.93 0.11375,0.34625 0.17,0.705 0.17,1.07875 0,0.36375 -0.0562,0.7225 -0.17,1.07375 -0.11375,0.355 -0.2975,0.665 -0.54625,0.9375 -0.25125,0.26875 -0.57625,0.48625 -0.9725,0.6525 -0.40125,0.16625 -0.8825,0.24625 -1.45,0.24625 l -2.09875,0 0,3.2575 -1.9975,0 0,-9.08 4.09625,0 z m 6.38,9.08 -1.995,0 0,-9.08 1.995,0 0,9.08 z m 7.57875,-6.65625 c -0.1175,-0.19 -0.26625,-0.35875 -0.445,-0.5025 -0.17875,-0.14375 -0.38125,-0.25625 -0.6025,-0.33375 -0.2275,-0.0838 -0.4625,-0.125 -0.70875,-0.125 -0.44875,0 -0.82875,0.0875 -1.1425,0.26375 -0.31375,0.17375 -0.57,0.405 -0.76125,0.6975 -0.1975,0.29125 -0.33875,0.625 -0.4275,0.99625 -0.0888,0.37375 -0.1325,0.76 -0.1325,1.1575 0,0.38375 0.0438,0.7525 0.1325,1.11375 0.0888,0.35875 0.23,0.68375 0.4275,0.97125 0.19125,0.29125 0.4475,0.52 0.76125,0.69625 0.31375,0.17 0.69375,0.25875 1.1425,0.25875 0.61125,0 1.08875,-0.18625 1.43375,-0.55875 0.34125,-0.37375 0.55125,-0.865 0.62875,-1.4775 l 1.93125,0 c -0.0512,0.56875 -0.1825,1.08125 -0.39375,1.54 -0.21375,0.45875 -0.4925,0.8475 -0.84125,1.1675 -0.34625,0.325 -0.75125,0.56875 -1.21625,0.74 -0.46875,0.1675 -0.98375,0.25625 -1.5425,0.25625 -0.69375,0 -1.31875,-0.125 -1.87375,-0.36375 -0.555,-0.245 -1.02375,-0.57375 -1.40625,-0.99875 -0.38,-0.4225 -0.6725,-0.92 -0.875,-1.49375 -0.205,-0.57375 -0.305,-1.19 -0.305,-1.85125 0,-0.67875 0.1,-1.30875 0.305,-1.8875 0.2025,-0.57875 0.495,-1.08625 0.875,-1.5175 0.3825,-0.4325 0.85125,-0.7725 1.40625,-1.01875 0.555,-0.24625 1.18,-0.36875 1.87375,-0.36875 0.50125,0 0.97375,0.0738 1.41875,0.215 0.44625,0.14375 0.845,0.35375 1.19625,0.63 0.35,0.27625 0.6425,0.6175 0.86875,1.025 0.23,0.405 0.3725,0.8725 0.435,1.39625 l -1.93375,0 c -0.0337,-0.22625 -0.11125,-0.43875 -0.22875,-0.6275 m 5.5925,-2.42375 0,3.7675 3.55,-3.7675 2.49,0 -3.5475,3.58625 3.89125,5.49375 -2.50625,0 -2.73375,-4.0825 -1.14375,1.1575 0,2.925 -1.99625,0 0,-9.08"
         style="fill:#ffffff;fill-opacity:1;fill-rule:nonzero;stroke:none"
         id="path860-6"
         inkscape:connector-curvature="0" />
    </g>
  </g>
</svg>
